<?xml version="1.0" encoding="UTF-8" standalone="no"?>
<svg
   xmlns:dc="http://purl.org/dc/elements/1.1/"
   xmlns:cc="http://creativecommons.org/ns#"
   xmlns:rdf="http://www.w3.org/1999/02/22-rdf-syntax-ns#"
   xmlns:svg="http://www.w3.org/2000/svg"
   xmlns="http://www.w3.org/2000/svg"
   xmlns:sodipodi="http://sodipodi.sourceforge.net/DTD/sodipodi-0.dtd"
   xmlns:inkscape="http://www.inkscape.org/namespaces/inkscape"
   id="visual"
   viewBox="0 0 960 136"
   width="960"
   height="136"
   version="1.1"
   sodipodi:docname="layer3_Steven.svg"
   inkscape:version="1.0.2 (e86c8708, 2021-01-15)">
  <metadata
     id="metadata6276">
    <rdf:RDF>
      <cc:Work
         rdf:about="">
        <dc:format>image/svg+xml</dc:format>
        <dc:type
           rdf:resource="http://purl.org/dc/dcmitype/StillImage" />
      </cc:Work>
    </rdf:RDF>
  </metadata>
  <defs
     id="defs6274" />
  <sodipodi:namedview
     pagecolor="#ffffff"
     bordercolor="#666666"
     borderopacity="1"
     objecttolerance="10"
     gridtolerance="10"
     guidetolerance="10"
     inkscape:pageopacity="0"
     inkscape:pageshadow="2"
     inkscape:window-width="1917"
     inkscape:window-height="1088"
     id="namedview6272"
     showgrid="false"
     inkscape:zoom="1.1416667"
     inkscape:cx="480"
     inkscape:cy="-15"
     inkscape:window-x="0"
     inkscape:window-y="22"
     inkscape:window-maximized="0"
     inkscape:current-layer="visual" />
  <rect
     x="0"
     y="0"
     width="960"
     height="135"
     fill="#f0ede2"
     id="rect6249"
     style="stroke-width:0.670821" />
  <path
     d="M 0,38 20,30.3 C 40,22.7 80,7.3 120,7.7 160,8 200,24 240,29.5 c 40,5.5 80,0.5 120,-3.7 40,-4.1 80,-7.5 120,-1.5 40,6 80,21.4 120,26.9 40,5.5 80,1.1 120,-4.9 40,-6 80,-13.6 120,-21.6 40,-8 80,-16.4 100,-20.5 L 960,0 v 136 h -20 c -20,0 -60,0 -100,0 -40,0 -80,0 -120,0 -40,0 -80,0 -120,0 -40,0 -80,0 -120,0 -40,0 -80,0 -120,0 -40,0 -80,0 -120,0 -40,0 -80,0 -120,0 -40,0 -80,0 -100,0 H 0 Z"
     fill="#f0ede2"
     id="path6251" />
  <path
     d="m 0,38 20,0.2 c 20,0.1 60,0.5 100,-3 40,-3.5 80,-10.9 120,-9.7 40,1.2 80,10.8 120,17.5 40,6.7 80,10.3 120,10.7 40,0.3 80,-2.7 120,-7.5 40,-4.9 80,-11.5 120,-9.9 40,1.7 80,11.7 120,17 40,5.4 80,6 100,6.4 l 20,0.3 v 76 h -20 c -20,0 -60,0 -100,0 -40,0 -80,0 -120,0 -40,0 -80,0 -120,0 -40,0 -80,0 -120,0 -40,0 -80,0 -120,0 -40,0 -80,0 -120,0 -40,0 -80,0 -120,0 -40,0 -80,0 -100,0 H 0 Z"
     fill="#e8e0ce"
     id="path6253" />
  <path
     d="m 0,36 20,-1 c 20,-1 60,-3 100,0.8 40,3.9 80,13.5 120,12.5 40,-1 80,-12.6 120,-17.5 40,-4.8 80,-2.8 120,2.9 40,5.6 80,15 120,15.1 40,0.2 80,-8.8 120,-10.8 40,-2 80,3 120,3.3 40,0.4 80,-4 100,-6.1 L 960,33 v 103 h -20 c -20,0 -60,0 -100,0 -40,0 -80,0 -120,0 -40,0 -80,0 -120,0 -40,0 -80,0 -120,0 -40,0 -80,0 -120,0 -40,0 -80,0 -120,0 -40,0 -80,0 -120,0 -40,0 -80,0 -100,0 H 0 Z"
     fill="#e2d3ba"
     id="path6255" />
  <path
     d="m 0,32 20,3.3 c 20,3.4 60,10 100,12.7 40,2.7 80,1.3 120,1.7 40,0.3 80,2.3 120,5.3 40,3 80,7 120,5 40,-2 80,-10 120,-16 40,-6 80,-10 120,-4.3 40,5.6 80,21 120,29.6 C 880,78 920,80 940,81 l 20,1 v 54 h -20 c -20,0 -60,0 -100,0 -40,0 -80,0 -120,0 -40,0 -80,0 -120,0 -40,0 -80,0 -120,0 -40,0 -80,0 -120,0 -40,0 -80,0 -120,0 -40,0 -80,0 -120,0 -40,0 -80,0 -100,0 H 0 Z"
     fill="#dec5a7"
     id="path6257" />
  <path
     d="m 0,65 20,0.7 c 20,0.6 60,2 100,-0.9 40,-2.8 80,-9.8 120,-6.5 40,3.4 80,17 120,17.4 C 400,76 440,63 480,61 c 40,-2 80,7 120,13.5 40,6.5 80,10.5 120,6 C 760,76 800,63 840,62 c 40,-1 80,10 100,15.5 l 20,5.5 v 53 h -20 c -20,0 -60,0 -100,0 -40,0 -80,0 -120,0 -40,0 -80,0 -120,0 -40,0 -80,0 -120,0 -40,0 -80,0 -120,0 -40,0 -80,0 -120,0 -40,0 -80,0 -120,0 -40,0 -80,0 -100,0 H 0 Z"
     fill="#dab696"
     id="path6259" />
  <path
     d="m 0,88 20,-1.8 c 20,-1.9 60,-5.5 100,-3.9 40,1.7 80,8.7 120,4.9 40,-3.9 80,-18.5 120,-21.4 40,-2.8 80,6.2 120,9.5 40,3.4 80,1 120,2.5 40,1.5 80,6.9 120,7.9 40,1 80,-2.4 120,-1.2 40,1.2 80,6.8 100,9.7 l 20,2.8 v 39 h -20 c -20,0 -60,0 -100,0 -40,0 -80,0 -120,0 -40,0 -80,0 -120,0 -40,0 -80,0 -120,0 -40,0 -80,0 -120,0 -40,0 -80,0 -120,0 -40,0 -80,0 -120,0 -40,0 -80,0 -100,0 H 0 Z"
     fill="#d6a786"
     id="path6261" />
  <path
     d="m 0,96 20,-2.3 c 20,-2.4 60,-7 100,-10.9 40,-3.8 80,-6.8 120,-7.5 40,-0.6 80,1 120,1.5 40,0.5 80,-0.1 120,-1.6 40,-1.5 80,-3.9 120,-3.9 40,0 80,2.4 120,5.7 40,3.3 80,7.7 120,11.5 40,3.8 80,7.2 100,8.8 l 20,1.7 v 37 h -20 c -20,0 -60,0 -100,0 -40,0 -80,0 -120,0 -40,0 -80,0 -120,0 -40,0 -80,0 -120,0 -40,0 -80,0 -120,0 -40,0 -80,0 -120,0 -40,0 -80,0 -120,0 -40,0 -80,0 -100,0 H 0 Z"
     fill="#d39879"
     id="path6263" />
  <path
     d="m 0,84 20,0.2 c 20,0.1 60,0.5 100,4 40,3.5 80,10.1 120,14.8 40,4.7 80,7.3 120,3.8 40,-3.5 80,-13.1 120,-14.1 40,-1 80,6.6 120,6 40,-0.7 80,-9.7 120,-12 40,-2.4 80,2 120,4.1 40,2.2 80,2.2 100,2.2 h 20 v 43 h -20 c -20,0 -60,0 -100,0 -40,0 -80,0 -120,0 -40,0 -80,0 -120,0 -40,0 -80,0 -120,0 -40,0 -80,0 -120,0 -40,0 -80,0 -120,0 -40,0 -80,0 -120,0 -40,0 -80,0 -100,0 H 0 Z"
     fill="#cf886d"
     id="path6265" />
  <path
     d="m 0,108 20,-1 c 20,-1 60,-3 100,-3 40,0 80,2 120,0.8 40,-1.1 80,-5.5 120,-6.5 40,-1 80,1.4 120,4.7 40,3.3 80,7.7 120,7.5 40,-0.2 80,-4.8 120,-8.2 40,-3.3 80,-5.3 120,-5.1 40,0.1 80,2.5 100,3.6 l 20,1.2 v 34 h -20 c -20,0 -60,0 -100,0 -40,0 -80,0 -120,0 -40,0 -80,0 -120,0 -40,0 -80,0 -120,0 -40,0 -80,0 -120,0 -40,0 -80,0 -120,0 -40,0 -80,0 -120,0 -40,0 -80,0 -100,0 H 0 Z"
     fill="#cb7864"
     id="path6267" />
  <path
     d="m 0,127 20,-1.5 c 20,-1.5 60,-4.5 100,-7.3 40,-2.9 80,-5.5 120,-6 40,-0.5 80,1.1 120,3.6 40,2.5 80,5.9 120,6.5 40,0.7 80,-1.3 120,-4 40,-2.6 80,-6 120,-7.1 40,-1.2 80,-0.2 120,2.8 40,3 80,8 100,10.5 l 20,2.5 v 9 h -20 c -20,0 -60,0 -100,0 -40,0 -80,0 -120,0 -40,0 -80,0 -120,0 -40,0 -80,0 -120,0 -40,0 -80,0 -120,0 -40,0 -80,0 -120,0 -40,0 -80,0 -120,0 -40,0 -80,0 -100,0 H 0 Z"
     fill="#c7675d"
     id="path6269" />
</svg>
