<?xml version="1.0" encoding="UTF-8" standalone="no"?>
<svg
   xmlns:dc="http://purl.org/dc/elements/1.1/"
   xmlns:cc="http://creativecommons.org/ns#"
   xmlns:rdf="http://www.w3.org/1999/02/22-rdf-syntax-ns#"
   xmlns:svg="http://www.w3.org/2000/svg"
   xmlns="http://www.w3.org/2000/svg"
   xmlns:sodipodi="http://sodipodi.sourceforge.net/DTD/sodipodi-0.dtd"
   xmlns:inkscape="http://www.inkscape.org/namespaces/inkscape"
   id="visual"
   viewBox="0 0 960 133"
   width="960"
   height="133"
   version="1.1"
   sodipodi:docname="layer4_Steven.svg"
   inkscape:version="1.0.2 (e86c8708, 2021-01-15)">
  <metadata
     id="metadata6866">
    <rdf:RDF>
      <cc:Work
         rdf:about="">
        <dc:format>image/svg+xml</dc:format>
        <dc:type
           rdf:resource="http://purl.org/dc/dcmitype/StillImage" />
      </cc:Work>
    </rdf:RDF>
  </metadata>
  <defs
     id="defs6864" />
  <sodipodi:namedview
     pagecolor="#ffffff"
     bordercolor="#666666"
     borderopacity="1"
     objecttolerance="10"
     gridtolerance="10"
     guidetolerance="10"
     inkscape:pageopacity="0"
     inkscape:pageshadow="2"
     inkscape:window-width="1617"
     inkscape:window-height="1194"
     id="namedview6862"
     showgrid="false"
     inkscape:zoom="0.80728024"
     inkscape:cx="427.80776"
     inkscape:cy="49.512578"
     inkscape:window-x="0"
     inkscape:window-y="22"
     inkscape:window-maximized="0"
     inkscape:current-layer="visual" />
  <rect
     x="0"
     y="0"
     width="960"
     height="133"
     fill="#d2c5b2"
     id="rect6839"
     style="stroke-width:0.665833" />
  <path
     d="m 0,95 20,7.7 c 20,7.6 60,23 100,22.6 40,-0.3 80,-16.3 120,-21.8 40,-5.5 80,-0.5 120,3.7 40,4.1 80,7.5 120,1.5 40,-6 80,-21.4 120,-26.9 40,-5.5 80,-1.1 120,4.9 40,6 80,13.6 120,21.6 40,8 80,16.4 100,20.5 l 20,4.2 V 0 H 940 C 920,0 880,0 840,0 800,0 760,0 720,0 680,0 640,0 600,0 560,0 520,0 480,0 440,0 400,0 360,0 320,0 280,0 240,0 200,0 160,0 120,0 80,0 40,0 20,0 H 0 Z"
     fill="#d2c5b2"
     id="path6841" />
  <path
     d="m 0,95 20,-0.2 c 20,-0.1 60,-0.5 100,3 40,3.5 80,10.9 120,9.7 40,-1.2 80,-10.8 120,-17.5 40,-6.7 80,-10.3 120,-10.7 40,-0.3 80,2.7 120,7.5 40,4.9 80,11.5 120,9.9 40,-1.7 80,-11.7 120,-17 40,-5.4 80,-6 100,-6.4 L 960,73 V 0 H 940 C 920,0 880,0 840,0 800,0 760,0 720,0 680,0 640,0 600,0 560,0 520,0 480,0 440,0 400,0 360,0 320,0 280,0 240,0 200,0 160,0 120,0 80,0 40,0 20,0 H 0 Z"
     fill="#d0bca4"
     id="path6843" />
  <path
     d="m 0,97 20,1 c 20,1 60,3 100,-0.8 40,-3.9 80,-13.5 120,-12.5 40,1 80,12.6 120,17.5 40,4.8 80,2.8 120,-2.9 40,-5.6 80,-15 120,-15.1 40,-0.2 80,8.8 120,10.8 40,2 80,-3 120,-3.3 40,-0.4 80,4 100,6.1 l 20,2.2 V 0 H 940 C 920,0 880,0 840,0 800,0 760,0 720,0 680,0 640,0 600,0 560,0 520,0 480,0 440,0 400,0 360,0 320,0 280,0 240,0 200,0 160,0 120,0 80,0 40,0 20,0 H 0 Z"
     fill="#ceb297"
     id="path6845" />
  <path
     d="M 0,101 20,97.7 C 40,94.3 80,87.7 120,85 160,82.3 200,83.7 240,83.3 280,83 320,81 360,78 c 40,-3 80,-7 120,-5 40,2 80,10 120,16 40,6 80,10 120,4.3 40,-5.6 80,-21 120,-29.6 C 880,55 920,53 940,52 l 20,-1 V 0 H 940 C 920,0 880,0 840,0 800,0 760,0 720,0 680,0 640,0 600,0 560,0 520,0 480,0 440,0 400,0 360,0 320,0 280,0 240,0 200,0 160,0 120,0 80,0 40,0 20,0 H 0 Z"
     fill="#cda88b"
     id="path6847" />
  <path
     d="m 0,68 20,-0.7 c 20,-0.6 60,-2 100,0.9 40,2.8 80,9.8 120,6.5 40,-3.4 80,-17 120,-17.4 C 400,57 440,70 480,72 520,74 560,65 600,58.5 640,52 680,48 720,52.5 760,57 800,70 840,71 880,72 920,61 940,55.5 L 960,50 V 0 H 940 C 920,0 880,0 840,0 800,0 760,0 720,0 680,0 640,0 600,0 560,0 520,0 480,0 440,0 400,0 360,0 320,0 280,0 240,0 200,0 160,0 120,0 80,0 40,0 20,0 H 0 Z"
     fill="#cc9e80"
     id="path6849" />
  <path
     d="m 0,45 20,1.8 c 20,1.9 60,5.5 100,3.9 40,-1.7 80,-8.7 120,-4.9 40,3.9 80,18.5 120,21.4 40,2.8 80,-6.2 120,-9.5 40,-3.4 80,-1 120,-2.5 40,-1.5 80,-6.9 120,-7.9 40,-1 80,2.4 120,1.2 40,-1.2 80,-6.8 100,-9.7 L 960,36 V 0 H 940 C 920,0 880,0 840,0 800,0 760,0 720,0 680,0 640,0 600,0 560,0 520,0 480,0 440,0 400,0 360,0 320,0 280,0 240,0 200,0 160,0 120,0 80,0 40,0 20,0 H 0 Z"
     fill="#cc9476"
     id="path6851" />
  <path
     d="m 0,37 20,2.3 c 20,2.4 60,7 100,10.9 40,3.8 80,6.8 120,7.5 40,0.6 80,-1 120,-1.5 40,-0.5 80,0.1 120,1.6 40,1.5 80,3.9 120,3.9 40,0 80,-2.4 120,-5.7 40,-3.3 80,-7.7 120,-11.5 40,-3.8 80,-7.2 100,-8.8 L 960,34 V 0 H 940 C 920,0 880,0 840,0 800,0 760,0 720,0 680,0 640,0 600,0 560,0 520,0 480,0 440,0 400,0 360,0 320,0 280,0 240,0 200,0 160,0 120,0 80,0 40,0 20,0 H 0 Z"
     fill="#cb896e"
     id="path6853" />
  <path
     d="m 0,49 20,-0.2 c 20,-0.1 60,-0.5 100,-4 40,-3.5 80,-10.1 120,-14.8 40,-4.7 80,-7.3 120,-3.8 40,3.5 80,13.1 120,14.1 40,1 80,-6.6 120,-6 40,0.7 80,9.7 120,12 40,2.4 80,-2 120,-4.1 C 880,40 920,40 940,40 h 20 V 0 H 940 C 920,0 880,0 840,0 800,0 760,0 720,0 680,0 640,0 600,0 560,0 520,0 480,0 440,0 400,0 360,0 320,0 280,0 240,0 200,0 160,0 120,0 80,0 40,0 20,0 H 0 Z"
     fill="#ca7e67"
     id="path6855" />
  <path
     d="m 0,25 20,1 c 20,1 60,3 100,3 40,0 80,-2 120,-0.8 40,1.1 80,5.5 120,6.5 40,1 80,-1.4 120,-4.7 40,-3.3 80,-7.7 120,-7.5 40,0.2 80,4.8 120,8.2 40,3.3 80,5.3 120,5.1 40,-0.1 80,-2.5 100,-3.6 L 960,31 V 0 H 940 C 920,0 880,0 840,0 800,0 760,0 720,0 680,0 640,0 600,0 560,0 520,0 480,0 440,0 400,0 360,0 320,0 280,0 240,0 200,0 160,0 120,0 80,0 40,0 20,0 H 0 Z"
     fill="#c97361"
     id="path6857" />
  <path
     d="m 0,6 20,1.5 c 20,1.5 60,4.5 100,7.3 40,2.9 80,5.5 120,6 40,0.5 80,-1.1 120,-3.6 40,-2.5 80,-5.9 120,-6.5 40,-0.7 80,1.3 120,4 40,2.6 80,6 120,7.1 C 760,23 800,22 840,19 880,16 920,11 940,8.5 L 960,6 V 0 H 940 C 920,0 880,0 840,0 800,0 760,0 720,0 680,0 640,0 600,0 560,0 520,0 480,0 440,0 400,0 360,0 320,0 280,0 240,0 200,0 160,0 120,0 80,0 40,0 20,0 H 0 Z"
     fill="#c7675d"
     id="path6859" />
</svg>
